<?xml version="1.0" encoding="UTF-8"?>
<svg width="24px" height="24px" viewBox="0 0 24 24" version="1.1" xmlns="http://www.w3.org/2000/svg" xmlns:xlink="http://www.w3.org/1999/xlink">
    <!-- Generator: Sketch 46.2 (44496) - http://www.bohemiancoding.com/sketch -->
    <title>Insta</title>
    <desc>Created with Sketch.</desc>
    <defs></defs>
    <g id="Page-1" stroke="none" stroke-width="1" fill="none" fill-rule="evenodd">
        <g id="Главная_index" transform="translate(-709.000000, -3609.000000)" fill="#FFFFFF">
            <g id="Group-5" transform="translate(0.000000, 3503.000000)">
                <g id="Group-4" transform="translate(675.000000, 106.000000)">
                    <g id="Insta" transform="translate(34.000000, 0.000000)">
                        <g id="Group-3" transform="translate(0.000000, 0.008100)">
                            <path d="M19.636176,4.20253846 C17.648736,2.298 14.911296,1.11461538 11.884416,1.11461538 C8.864016,1.11461538 6.119856,2.298 4.139376,4.20253846 C2.158416,6.10707692 0.927936,8.73923077 0.927936,11.6496923 C0.927936,14.5603846 2.158416,17.1925385 4.139376,19.1033077 C6.119856,21.0080769 8.864016,22.1847692 11.884416,22.1847692 C14.911296,22.1847692 17.648736,21.0080769 19.636176,19.1033077 C21.616896,17.1925385 22.840896,14.5603846 22.840896,11.6496923 C22.840896,8.73923077 21.616896,6.10707692 19.636176,4.20253846 M11.884416,0.222692308 C15.167856,0.222692308 18.142176,1.50069231 20.287536,3.56976923 C22.439376,5.63907692 23.768736,8.49253846 23.768736,11.6496923 C23.768736,14.8070769 22.439376,17.6607692 20.287536,19.7298462 C18.142176,21.7989231 15.167856,23.0769231 11.884416,23.0769231 C8.607216,23.0769231 5.633136,21.7989231 3.481056,19.7298462 C1.329216,17.6607692 9.60000002e-05,14.8070769 9.60000002e-05,11.6496923 C9.60000002e-05,8.49253846 1.329216,5.63907692 3.481056,3.56976923 C5.633136,1.50069231 8.607216,0.222692308 11.884416,0.222692308" id="Fill-1"></path>
                        </g>
                        <path d="M15.727248,11.6579077 C15.727248,9.62044615 14.009808,7.96283077 11.884368,7.96283077 C9.765408,7.96283077 8.041488,9.62044615 8.041488,11.6579077 C8.041488,13.7016 9.765408,15.3532154 11.884368,15.3532154 C14.009808,15.3532154 15.727248,13.7016 15.727248,11.6579077 M15.655008,7.46298462 C15.312768,7.46298462 15.036528,7.7286 15.036528,8.05744615 C15.036528,8.38675385 15.312768,8.65236923 15.655008,8.65236923 C15.997248,8.65236923 16.273488,8.38675385 16.273488,8.05744615 C16.273488,7.7286 15.997248,7.46298462 15.655008,7.46298462 M8.745648,6.60890769 L15.029808,6.60890769 C16.194768,6.60890769 17.142288,7.51975385 17.142288,8.63990769 L17.142288,14.6823692 C17.142288,15.8022923 16.194768,16.7133692 15.029808,16.7133692 L8.745648,16.7133692 C7.580688,16.7133692 6.633168,15.8022923 6.633168,14.6823692 L6.633168,8.63990769 C6.633168,7.51975385 7.580688,6.60890769 8.745648,6.60890769 M15.029808,5.93183077 L8.745648,5.93183077 C7.199088,5.93183077 5.929008,7.14636923 5.929008,8.63990769 L5.929008,14.6823692 C5.929008,16.1692154 7.199088,17.3904462 8.745648,17.3904462 L15.029808,17.3904462 C16.582848,17.3904462 17.846208,16.1692154 17.846208,14.6823692 L17.846208,8.63990769 C17.846208,7.14636923 16.582848,5.93183077 15.029808,5.93183077 M8.844048,11.6579077 C8.844048,10.0443692 10.206288,8.72829231 11.884368,8.72829231 C13.568928,8.72829231 14.931168,10.0443692 14.931168,11.6579077 C14.931168,13.2776769 13.568928,14.5875231 11.884368,14.5875231 C10.206288,14.5875231 8.844048,13.2776769 8.844048,11.6579077" id="Fill-4"></path>
                    </g>
                </g>
            </g>
        </g>
    </g>
</svg>