<?xml version="1.0" encoding="utf-8"?><svg xmlns="http://www.w3.org/2000/svg" xmlns:xlink="http://www.w3.org/1999/xlink"><symbol viewBox="0 0 24 24" id="Insta" xmlns="http://www.w3.org/2000/svg"><title>Insta</title><g fill-rule="evenodd"><path d="M19.636 4.21a11.173 11.173 0 0 0-7.752-3.087c-3.02 0-5.764 1.183-7.745 3.088C2.16 6.115.928 8.747.928 11.658c0 2.91 1.23 5.543 3.211 7.453 1.98 1.905 4.725 3.082 7.745 3.082 3.027 0 5.765-1.177 7.752-3.082 1.98-1.91 3.205-4.543 3.205-7.453s-1.224-5.543-3.205-7.447M11.884.23c3.284 0 6.258 1.278 8.404 3.347 2.151 2.07 3.48 4.923 3.48 8.08s-1.329 6.01-3.48 8.08c-2.146 2.069-5.12 3.347-8.404 3.347-3.277 0-6.25-1.278-8.403-3.347-2.152-2.07-3.48-4.923-3.48-8.08s1.328-6.01 3.48-8.08C5.633 1.508 8.607.23 11.884.23"/><path d="M15.727 11.658c0-2.038-1.717-3.695-3.843-3.695-2.119 0-3.843 1.657-3.843 3.695 0 2.044 1.724 3.695 3.843 3.695 2.126 0 3.843-1.651 3.843-3.695m-.072-4.195a.606.606 0 0 0-.618.594c0 .33.276.595.618.595a.606.606 0 0 0 .618-.595.606.606 0 0 0-.618-.594m-6.91-.854h6.285c1.165 0 2.112.91 2.112 2.03v6.043c0 1.12-.947 2.031-2.112 2.031H8.746c-1.165 0-2.113-.91-2.113-2.03V8.64c0-1.12.948-2.031 2.113-2.031m6.284-.677H8.746c-1.547 0-2.817 1.214-2.817 2.708v6.042c0 1.487 1.27 2.708 2.817 2.708h6.284c1.553 0 2.816-1.22 2.816-2.708V8.64c0-1.494-1.263-2.708-2.816-2.708m-6.186 5.726c0-1.614 1.362-2.93 3.04-2.93 1.685 0 3.047 1.316 3.047 2.93 0 1.62-1.362 2.93-3.047 2.93-1.678 0-3.04-1.31-3.04-2.93"/></g></symbol><symbol viewBox="0 0 477.175 477.175" id="back" xmlns="http://www.w3.org/2000/svg"><path d="M145.188 238.575l215.5-215.5c5.3-5.3 5.3-13.8 0-19.1s-13.8-5.3-19.1 0l-225.1 225.1c-5.3 5.3-5.3 13.8 0 19.1l225.1 225c2.6 2.6 6.1 4 9.5 4s6.9-1.3 9.5-4c5.3-5.3 5.3-13.8 0-19.1l-215.4-215.5z"/></symbol><symbol viewBox="0 0 26 26" id="checked" xmlns="http://www.w3.org/2000/svg"><path d="M.3 14c-.2-.2-.3-.5-.3-.7s.1-.5.3-.7l1.4-1.4c.4-.4 1-.4 1.4 0l.1.1 5.5 5.9c.2.2.5.2.7 0L22.8 3.3h.1c.4-.4 1-.4 1.4 0l1.4 1.4c.4.4.4 1 0 1.4l-16 16.6c-.2.2-.4.3-.7.3-.3 0-.5-.1-.7-.3L.5 14.3.3 14z"/></symbol><symbol viewBox="0 0 47.971 47.971" id="close" xmlns="http://www.w3.org/2000/svg"><path d="M28.228 23.986L47.092 5.122a2.998 2.998 0 0 0 0-4.242 2.998 2.998 0 0 0-4.242 0L23.986 19.744 5.121.88a2.998 2.998 0 0 0-4.242 0 2.998 2.998 0 0 0 0 4.242l18.865 18.864L.879 42.85a2.998 2.998 0 1 0 4.242 4.241l18.865-18.864L42.85 47.091c.586.586 1.354.879 2.121.879s1.535-.293 2.121-.879a2.998 2.998 0 0 0 0-4.242L28.228 23.986z"/></symbol><symbol viewBox="0 0 24 23" id="fb" xmlns="http://www.w3.org/2000/svg"><title>FB</title><g fill-rule="evenodd"><path d="M19.467 3.985A11.019 11.019 0 0 0 11.782.893c-3 0-5.715 1.185-7.679 3.092C2.14 5.892.92 8.527.92 11.44c0 2.914 1.22 5.55 3.183 7.463 1.964 1.907 4.678 3.085 7.679 3.085 3 0 5.715-1.178 7.685-3.085 1.963-1.913 3.177-4.549 3.177-7.463 0-2.914-1.214-5.55-3.177-7.456M11.782 0c3.255 0 6.197 1.28 8.33 3.351 2.134 2.072 3.452 4.929 3.452 8.09 0 3.161-1.318 6.018-3.451 8.09-2.134 2.072-5.076 3.351-8.331 3.351-3.256 0-6.198-1.28-8.331-3.351C1.318 17.459 0 14.602 0 11.441c0-3.161 1.318-6.018 3.451-8.09A11.917 11.917 0 0 1 11.781 0"/><path d="M12.782 9.098V8.16c0-.45.307-.557.529-.557h1.35V5.6H12.8c-2.067 0-2.53 1.482-2.53 2.445v1.052h-1.2v2.338h1.213v5.841h2.408v-5.84h1.78l.079-.92.144-1.418h-1.912z"/></g></symbol><symbol viewBox="0 0 24 24" id="insta" xmlns="http://www.w3.org/2000/svg"><title>Insta</title><g fill-rule="evenodd"><path d="M19.636 4.21a11.173 11.173 0 0 0-7.752-3.087c-3.02 0-5.764 1.183-7.745 3.088C2.16 6.115.928 8.747.928 11.658c0 2.91 1.23 5.543 3.211 7.453 1.98 1.905 4.725 3.082 7.745 3.082 3.027 0 5.765-1.177 7.752-3.082 1.98-1.91 3.205-4.543 3.205-7.453s-1.224-5.543-3.205-7.447M11.884.23c3.284 0 6.258 1.278 8.404 3.347 2.151 2.07 3.48 4.923 3.48 8.08s-1.329 6.01-3.48 8.08c-2.146 2.069-5.12 3.347-8.404 3.347-3.277 0-6.25-1.278-8.403-3.347-2.152-2.07-3.48-4.923-3.48-8.08s1.328-6.01 3.48-8.08C5.633 1.508 8.607.23 11.884.23"/><path d="M15.727 11.658c0-2.038-1.717-3.695-3.843-3.695-2.119 0-3.843 1.657-3.843 3.695 0 2.044 1.724 3.695 3.843 3.695 2.126 0 3.843-1.651 3.843-3.695m-.072-4.195a.606.606 0 0 0-.618.594c0 .33.276.595.618.595a.606.606 0 0 0 .618-.595.606.606 0 0 0-.618-.594m-6.91-.854h6.285c1.165 0 2.112.91 2.112 2.03v6.043c0 1.12-.947 2.031-2.112 2.031H8.746c-1.165 0-2.113-.91-2.113-2.03V8.64c0-1.12.948-2.031 2.113-2.031m6.284-.677H8.746c-1.547 0-2.817 1.214-2.817 2.708v6.042c0 1.487 1.27 2.708 2.817 2.708h6.284c1.553 0 2.816-1.22 2.816-2.708V8.64c0-1.494-1.263-2.708-2.816-2.708m-6.186 5.726c0-1.614 1.362-2.93 3.04-2.93 1.685 0 3.047 1.316 3.047 2.93 0 1.62-1.362 2.93-3.047 2.93-1.678 0-3.04-1.31-3.04-2.93"/></g></symbol><symbol viewBox="0 0 153 50" id="logo" xmlns="http://www.w3.org/2000/svg"><g fill-rule="evenodd"><path d="M8.824.462v48.262l.543.54h9.942l.544-.54V6.465l-.262-.462L9.65 0l-.826.462zm1.087.96l8.854 5.347v41.416H9.911V1.423z"/><path d="M11.03 47.794h6.617v-2.941H11.03v2.941zm1.073-1.127h4.47v-.686h-4.47v.686zm5.544-3.285l-6.618-.553v-3.123l6.618.554v3.122zm-5.544-1.676l4.47.374v-.698l-4.47-.373v.697zm5.544-3.471l-6.618-.957v-2.72l6.618.957v2.72zm-5.544-1.87l4.47.646v-.58l-4.47-.648v.581zm5.544-2.541l-6.618-1.516v-2.896l6.618 1.516v2.896zM12.103 31.4l4.47 1.024v-.59l-4.47-1.025v.59zm5.544-2.724L11.03 26.57v-3.04l6.618 2.106v3.04zm-5.544-2.988l4.47 1.422v-.591l-4.47-1.424v.593zm5.544-2.158l-6.618-2.38v-2.768l6.618 2.379v2.768zm-5.544-3.12l4.47 1.606v-.513l-4.47-1.607v.513zm5.544-1.292l-6.618-2.975v-2.908l6.618 2.975v2.908zm-5.544-3.69l4.47 2.01v-.513l-4.47-2.01v.513zm5.544-.722l-6.618-3.588v-3.03l6.618 3.588v3.03zm-5.544-4.268l4.47 2.425v-.507l-4.47-2.424v.506zm5.544-.144L11.03 6.08V2.94l6.618 4.215v3.138zm-5.544-4.852l4.47 2.848v-.497l-4.47-2.848v.497zM9.66 0L3.39 1.079l-.45.532v47.114l.543.54h6.268l.542-.54V.532L9.66 0zM4.025 2.065l5.183-.893v47.014H4.026V2.065zM23.53 13.696v35.03l.528.539h7.031l.529-.54V18.054l-.254-.46-7.032-4.358-.803.46zm1.057.958l5.973 3.702v29.831h-5.973V14.654z"/><path d="M25.664 46.994h3.083v-.605h-3.083v.605zm-.664.8h4.412v-2.206H25v2.206zm.664-4.644l3.083.238v-.51l-3.083-.237v.51zm3.748.968L25 43.778v-1.866l4.412.34v1.866zm-3.748-4.396l3.083.548v-.581l-3.083-.547v.58zm3.748 1.454L25 40.394v-2.159l4.412.783v2.158zm-3.748-5.257l3.083.722v-.5l-3.083-.723v.501zm3.748 1.581L25 36.467V34.56l4.412 1.033V37.5zm-3.748-5.044l3.083 1.073v-.544l-3.083-1.073v.544zm3.748 2.103L25 33.023v-2.14l4.412 1.535v2.14zm-3.748-5.883l3.083 1.209v-.473l-3.083-1.209v.473zm3.748 2.206L25 29.152v-1.946l4.412 1.73v1.946zm-3.748-6.426l3.083 1.583v-.494l-3.083-1.584v.495zm3.748 2.75L25 24.94v-2.147l4.412 2.265v2.147zm-3.748-6.513l3.083 1.692v-.43l-3.083-1.693v.43zm3.748 2.836L25 21.107v-1.99l4.412 2.423v1.99zm-3.748-6.337l3.083 2.081v-.436l-3.083-2.08v.435zm3.748 3.396L25 17.61v-2.169l4.412 2.978v2.17zm-9.884-6.57l-.41.53v34.179l.494.538h4.158l.495-.538V13.765l-.58-.53-4.157.783zm.579.983l3.17-.597v33.785h-3.17V15.001z"/><path d="M0 49.718h39.706V48.53H0z"/><path d="M35.294 49.265h1.171v-4.412h-1.17z"/><path d="M35.294 39.345c-.75 0-1.36.642-1.36 1.431 0 .31.098.608.284.864l-.091.773a2.01 2.01 0 0 0-.718 1.553c0 1.094.845 1.983 1.885 1.983s1.886-.89 1.886-1.983a2.01 2.01 0 0 0-.719-1.553l-.091-.773c.186-.256.285-.555.285-.864 0-.789-.61-1.43-1.36-1.43m0 7.713c-1.622 0-2.942-1.388-2.942-3.093 0-.781.276-1.518.77-2.084a2.589 2.589 0 0 1-.245-1.106c0-1.4 1.083-2.54 2.416-2.54s2.417 1.14 2.417 2.54c0 .386-.084.762-.246 1.106a3.16 3.16 0 0 1 .77 2.084c0 1.705-1.32 3.093-2.94 3.093M48.53 36.321V20.885h3.205v15.436h-3.206zm7.066 0V24.87h3.08v2.159c1.006-1.614 2.303-2.42 3.892-2.42 1.02 0 1.825.323 2.415.97.59.646.884 1.53.884 2.649v8.093h-3.08V28.99c0-1.3-.43-1.95-1.29-1.95-.979 0-1.919.692-2.82 2.076v7.206h-3.081zm21.188 0v-2.159c-.791 1.614-2.036 2.42-3.736 2.42-1.374 0-2.453-.504-3.237-1.512-.784-1.008-1.176-2.395-1.176-4.162 0-1.919.443-3.448 1.327-4.589.885-1.14 2.073-1.71 3.565-1.71 1.193 0 2.279.473 3.257 1.418v-6.174h3.09V36.32h-3.09zm0-8.458c-.742-.834-1.537-1.252-2.383-1.252-.756 0-1.36.365-1.811 1.096-.451.73-.676 1.71-.676 2.94 0 2.344.749 3.515 2.247 3.515.916 0 1.79-.587 2.623-1.762v-4.537zm16.235 8.073c-1.464.43-2.852.646-4.163.646-1.908 0-3.414-.542-4.517-1.627-1.103-1.085-1.654-2.566-1.654-4.443 0-1.773.504-3.2 1.514-4.281 1.01-1.082 2.343-1.622 4.001-1.622 1.672 0 2.893.528 3.663 1.585s1.156 2.73 1.156 5.017h-7.087c.208 2.183 1.404 3.275 3.59 3.275 1.034 0 2.2-.24 3.497-.72v2.17zm-7.13-6.467h4.101c0-1.954-.628-2.93-1.883-2.93-1.277 0-2.016.976-2.217 2.93zm9.097 6.852l3.923-5.746-3.757-5.705h3.507l2.456 3.63 2.352-3.63h2.498l-3.58 5.621 3.84 5.83h-3.507l-2.56-3.786-2.623 3.786h-2.55zm29.357-.615c-1.491.668-3.271 1.001-5.339 1.001-2.525 0-4.492-.712-5.9-2.138-1.409-1.425-2.113-3.414-2.113-5.966 0-2.6.71-4.6 2.128-6.002 1.42-1.4 3.443-2.101 6.073-2.101 1.679 0 3.347.198 5.006.594v2.514c-1.88-.66-3.456-.991-4.725-.991-1.624 0-2.876.516-3.757 1.549-.881 1.032-1.322 2.498-1.322 4.396 0 1.863.474 3.316 1.42 4.36.948 1.042 2.264 1.564 3.95 1.564 1.513 0 3.039-.383 4.58-1.147v2.367zm2.79.615V24.87h3.08v11.45h-3.08zm0-13.38v-2.577h3.08v2.576h-3.08zm12.82 13.318c-.735.215-1.314.323-1.737.323-2.672 0-4.007-1.251-4.007-3.755V26.8h-1.28v-1.93h1.28v-1.93l3.08-.354v2.284h2.446v1.93h-2.446v5.62c0 1.405.573 2.108 1.717 2.108.264 0 .58-.05.947-.146v1.877zm2.79 4.182l2.59-4.12-4.235-11.451h3.31l2.83 7.655 3.362-7.655h2.341l-7.056 15.571h-3.143z"/></g></symbol><symbol viewBox="0 0 53 53" id="menu" xmlns="http://www.w3.org/2000/svg"><path d="M2 13.5h49a2 2 0 0 0 0-4H2a2 2 0 0 0 0 4zm0 15h49a2 2 0 0 0 0-4H2a2 2 0 0 0 0 4zm0 15h49a2 2 0 0 0 0-4H2a2 2 0 0 0 0 4z"/></symbol><symbol viewBox="0 0 20 18" id="metro" xmlns="http://www.w3.org/2000/svg"><title>metro</title><defs><path d="M10 0C4.486 0 0 4.486 0 10c0 2.464.905 4.832 2.549 6.667l.426.476h14.05l.426-.476A9.981 9.981 0 0 0 20 10c0-5.514-4.486-10-10-10zm5.713 14.286H4.287A7.127 7.127 0 0 1 2.857 10 7.15 7.15 0 0 1 10 2.857 7.15 7.15 0 0 1 17.143 10a7.127 7.127 0 0 1-1.43 4.286z" id="ia"/><path id="ib" d="M10 7.62L7.435 4.2l-3.058 8.155 2.675 1.004 1.227-3.273L10 12.381l1.72-2.295 1.228 3.273 2.675-1.004L12.565 4.2z"/></defs><use fill-rule="evenodd" xlink:href="#ia"/><path d="M16.824 16.693l-.134.15.335-.15h-.2zm-13.648 0h-.201l.335.15-.134-.15zm13.648 0H3.176l-.292-.326A9.531 9.531 0 0 1 .45 10C.45 4.735 4.735.45 10 .45c5.265 0 9.55 4.285 9.55 9.55a9.531 9.531 0 0 1-2.434 6.367l-.292.326zm-.886-1.957H4.062l-.135-.18A7.577 7.577 0 0 1 2.407 10c0-4.187 3.406-7.593 7.593-7.593 4.187 0 7.593 3.406 7.593 7.593a7.577 7.577 0 0 1-1.52 4.556l-.135.18z"/><g><use fill-rule="evenodd" xlink:href="#ib"/><path d="M7.568 5.127l-2.612 6.965 1.833.687 1.357-3.62L10 11.631l1.854-2.472 1.357 3.62 1.833-.687-2.612-6.965L10 8.369 7.568 5.127z"/></g></symbol><symbol viewBox="0 0 477.175 477.175" id="next" xmlns="http://www.w3.org/2000/svg"><path d="M360.731 229.075l-225.1-225.1c-5.3-5.3-13.8-5.3-19.1 0s-5.3 13.8 0 19.1l215.5 215.5-215.5 215.5c-5.3 5.3-5.3 13.8 0 19.1 2.6 2.6 6.1 4 9.5 4 3.4 0 6.9-1.3 9.5-4l225.1-225.1c5.3-5.2 5.3-13.8.1-19z"/></symbol><symbol viewBox="0 0 56 62" id="noun-697660-cc" xmlns="http://www.w3.org/2000/svg"><g fill-rule="evenodd" stroke-linejoin="round" stroke-width="2" transform="translate(1 1)"><path d="M.782 36.136h6.136v23.182H.782zm6.136 3.754l3.891-2.29a5.682 5.682 0 0 1 2.873-.782h1.327c.802 0 1.596.171 2.327.5l1.691.764c.402.181.823.316 1.255.4l3.818.736c.357.068.719.101 1.082.1H27A5.682 5.682 0 0 1 32.727 45"/><path d="M16.464 48.41l.145-.128A13.636 13.636 0 0 1 25.455 45h10.39c2.406.01 4.77-.618 6.855-1.818l7.355-4.282a2.464 2.464 0 0 1 3.263.718 2.464 2.464 0 0 1-.482 3.327L39.555 53.636a2.464 2.464 0 0 1-1.082.5L24.3 56.864a2.464 2.464 0 0 1-.455 0H6.918m6.964-23.146V22.055H8.964L29.982.682l20.19 21.373h-5v15.572"/><circle cx="24.836" cy="20.518" r="2.673"/><circle cx="35.073" cy="30.755" r="2.673"/><path d="M22.69 32.873l14.5-14.51"/></g></symbol><symbol viewBox="0 0 62 62" id="noun-859418-cc" xmlns="http://www.w3.org/2000/svg"><g fill-rule="evenodd" stroke-linecap="round" stroke-linejoin="round" stroke-width="2"><path d="M43.562 25.855v15.996H19.28V25.855"/><path d="M46.702 27.974L31.422 16.32 16.127 27.974M31 60.464A29.464 29.464 0 0 1 12.604 7.996M31 1.536a29.464 29.464 0 0 1 18.677 52.251"/><path d="M2.11 7.677h10.481v10.468m47.515 36.178H49.41V43.638"/></g></symbol><symbol viewBox="0 0 60 40" id="noun-976075-cc" xmlns="http://www.w3.org/2000/svg"><g fill-rule="evenodd"><path d="M8.067 14.047a4.38 4.38 0 0 0-.175 1.178c0 2.755 2.325 5.082 5.079 5.082a5.088 5.088 0 0 0 5.082-5.082c0-.43-.036-.824-.108-1.178H8.067zm33.553-2.432h10.64c.168 0 .217-.016.4-.136-.058.031-.015-.056-.015-.156 0-.116-.039-.196-.066-.222a.725.725 0 0 1-.495-.224c-.003-.004-.01-.006-.013-.01l-.001-.001a.76.76 0 0 1-.226-.517c0-1.393-.577-2.7-1.558-3.629v3.363a.683.683 0 0 1-.683.684h-1.244a.683.683 0 0 1-.684-.684v-5.02a4.355 4.355 0 0 0-1.381-.001v5.021a.683.683 0 0 1-.683.684h-1.33a.683.683 0 0 1-.683-.684V6.747c-.984.949-1.562 2.248-1.562 3.602a.685.685 0 0 1-.567.674l-.072.072c-.031.031-.068.111-.068.228 0 .119.038.202.064.227.032.032.116.065.226.065zm-17.165-.316c-.105.386-.156.832-.156 1.357a5.706 5.706 0 0 0 5.702 5.698 5.707 5.707 0 0 0 5.704-5.698c0-.453-.087-.921-.196-1.357H24.455zm17.58 2.748a4.395 4.395 0 0 0-.176 1.178 5.088 5.088 0 0 0 5.082 5.082c2.802 0 5.08-2.28 5.08-5.082 0-.43-.036-.824-.108-1.178h-9.878zm-18.1-5.234l.02.008a.444.444 0 0 0 .11.047h11.788c.07 0 .178-.016.314-.153.145-.147.157-.24.157-.318 0-.196-.035-.22-.048-.228a.7.7 0 0 1-.217-.234c-.002.014-.055-.009-.152-.04a.684.684 0 0 1-.472-.65 5.495 5.495 0 0 0-1.822-4.098v3.92a.683.683 0 0 1-.683.684h-1.421a.683.683 0 0 1-.684-.684V1.432a5.788 5.788 0 0 0-1.648-.001v5.636a.683.683 0 0 1-.684.684h-1.417a.683.683 0 0 1-.683-.684V3.133c-1.203 1.04-1.916 2.532-1.916 4.112a.685.685 0 0 1-.379.613c-.161.079-.257.13-.353.224-.033.033-.069.133-.069.315 0 .096.03.199.092.313.055.036.114.073.167.103zM7.651 11.615h10.641c.165 0 .215-.016.395-.134-.041.017-.014-.052-.014-.158 0-.116-.039-.197-.066-.224-.378 0-.731-.372-.731-.75a4.994 4.994 0 0 0-1.562-3.632v3.366a.683.683 0 0 1-.683.684h-1.24a.683.683 0 0 1-.684-.684v-5.02a4.363 4.363 0 0 0-1.382-.001v5.021a.683.683 0 0 1-.684.684h-1.329a.683.683 0 0 1-.683-.684V6.747c-.983.95-1.561 2.248-1.561 3.602a.685.685 0 0 1-.567.674l-.076.076c-.027.027-.066.107-.066.224 0 .119.039.2.066.227.032.032.116.065.226.065zm7.864 20.244c.848-2.534 1.844-4.772 2.964-6.661-1.648-1.416-3.456-2.106-5.508-2.106-4.647 0-7.973 3.413-10.168 10.433l-1.418 4.522.026.153c.13.187.474.38.828.38h11.6a3.255 3.255 0 0 1 .08-1.752l1.594-4.961.002-.008zm35.4-7.781c-.098-.054-.2-.096-.299-.146-.144-.072-.287-.15-.435-.211-.997-.422-2.074-.63-3.24-.63-2.02 0-3.886.722-5.426 2.096 1.172 1.978 2.19 4.334 2.889 6.695l1.59 4.952a3.52 3.52 0 0 1 .133 1.745h11.634c.44 0 .865-.358.868-.492l-1.432-4.562c-1.607-4.893-3.649-7.989-6.282-9.447zm-9.59 8.832a38.406 38.406 0 0 0-.469-1.417c-2.094-5.931-5.047-9.222-8.973-9.994a9.743 9.743 0 0 0-1.882-.178c-5.223 0-8.849 3.682-11.412 11.59l-1.506 4.953c-.049.13-.053.192.012.288.159.235.577.427.932.427h23.858c.384 0 .79-.173.97-.414.096-.13.085-.226.062-.303l-1.592-4.953z"/><path fill-rule="nonzero" d="M7.038 12.869c.013.004.02.016.033.02a.693.693 0 0 0-.158.258c-.192.577-.388 1.275-.388 2.077 0 3.496 2.951 6.45 6.446 6.45a6.458 6.458 0 0 0 6.45-6.45c0-.777-.102-1.475-.302-2.077a.685.685 0 0 0-.173-.274l.002-.001c.2-.076.395-.193.628-.357.295-.297.465-.731.465-1.192 0-.46-.17-.894-.466-1.19a1.815 1.815 0 0 0-.35-.278 6.345 6.345 0 0 0-3.264-5.073.687.687 0 0 0-.886.203v-.49a.705.705 0 0 0-.57-.674c-.462-.092-.938-.187-1.534-.187-.504 0-.981.095-1.462.19a.683.683 0 0 0-.55.67v.664a.694.694 0 0 0-.304-.37.69.69 0 0 0-.685.001C8.09 5.88 6.873 7.806 6.72 9.896a2.364 2.364 0 0 0-.259.235c-.296.295-.467.728-.467 1.192 0 .462.17.896.466 1.193.157.159.357.273.578.353zm5.933 7.438c-2.754 0-5.079-2.328-5.079-5.082 0-.421.073-.812.175-1.178h9.878c.072.354.108.748.108 1.178a5.088 5.088 0 0 1-5.082 5.082zM7.425 11.1c.028-.028.053-.055.076-.076a.685.685 0 0 0 .567-.674c0-1.355.578-2.652 1.56-3.603v3.337c0 .378.306.683.684.683h1.33a.683.683 0 0 0 .683-.683V5.06c.502-.08.956-.065 1.382.002v5.02c0 .378.306.683.684.683h1.24a.683.683 0 0 0 .683-.683V6.717a4.993 4.993 0 0 1 1.562 3.632c0 .378.354.75.731.75.027.026.066.108.066.224 0 .105-.027.174.014.157-.18.119-.229.135-.395.135H7.652c-.111 0-.195-.034-.227-.066-.027-.026-.066-.108-.066-.226 0-.118.039-.198.066-.224zm35.202 21.398a37.398 37.398 0 0 0-.504-1.516c-.012-.037-.027-.07-.04-.106a32.738 32.738 0 0 0-.501-1.308c-.075-.183-.155-.35-.233-.528-.115-.266-.228-.538-.348-.793-.016-.033-.034-.063-.049-.096-1.994-4.178-4.62-6.774-7.853-7.753-.023-.007-.047-.01-.07-.017-.304-.09-.611-.168-.925-.23a11.004 11.004 0 0 0-2.102-.197c-5.821 0-9.979 4.1-12.717 12.547l-1.49 4.911a1.583 1.583 0 0 0 .169 1.509c.417.614 1.245 1.026 2.063 1.026h23.858c.82 0 1.63-.379 2.065-.965a1.67 1.67 0 0 0 .27-1.526l-1.593-4.958zm.227 5.667c-.179.24-.586.414-.97.414H18.028c-.356 0-.773-.192-.932-.427-.066-.096-.062-.159-.012-.288l1.505-4.953c2.563-7.908 6.19-11.59 11.413-11.59.65 0 1.277.059 1.882.178 3.926.772 6.878 4.063 8.972 9.993.161.454.316.924.466 1.41l.003.007 1.593 4.954c.022.076.033.172-.063.302zm-1.848-25.296c.013.004.02.016.033.02a.693.693 0 0 0-.158.258c-.192.58-.39 1.279-.39 2.077a6.458 6.458 0 0 0 6.45 6.45 6.457 6.457 0 0 0 6.448-6.45c0-.777-.102-1.475-.302-2.077a.692.692 0 0 0-.172-.273l.004-.003c.2-.076.394-.192.626-.355.296-.297.468-.731.468-1.193 0-.462-.171-.897-.469-1.192a1.752 1.752 0 0 0-.351-.276 6.347 6.347 0 0 0-3.26-5.072.678.678 0 0 0-.89.206v-.495a.697.697 0 0 0-.563-.673c-.463-.092-.943-.188-1.538-.188-.509 0-.992.096-1.464.191a.683.683 0 0 0-.55.67v.663a.694.694 0 0 0-.304-.37.69.69 0 0 0-.685.002c-.47.272-.898.597-1.28.963a6.43 6.43 0 0 0-1.972 4.142c-.097.075-.18.157-.256.233l-.002.003-.002.001c-.094.094-.152.222-.22.341-.037.067-.094.118-.122.19-.08.204-.122.428-.122.66 0 .463.169.897.464 1.193.158.16.358.274.579.354zm5.935 7.438a5.088 5.088 0 0 1-5.082-5.082c0-.42.074-.81.176-1.178h9.878c.072.354.108.748.108 1.178a5.087 5.087 0 0 1-5.08 5.082zm-5.544-9.212l.072-.072a.685.685 0 0 0 .567-.674c0-1.355.578-2.654 1.562-3.603v3.337c0 .378.306.683.683.683h1.33a.683.683 0 0 0 .683-.683V5.06c.5-.08.956-.065 1.381.002v5.02c0 .378.306.683.684.683h1.244a.683.683 0 0 0 .683-.683V6.719a4.995 4.995 0 0 1 1.558 3.63.76.76 0 0 0 .227.518l.013.009a.722.722 0 0 0 .495.224c.027.027.066.107.066.223 0 .1-.043.186.014.156-.181.12-.23.136-.399.136H41.62c-.111 0-.195-.034-.227-.066-.026-.025-.064-.108-.064-.226 0-.118.037-.198.068-.228zM22.879 9.76c.17.115.366.243.586.338.013.006.022.015.036.02a.691.691 0 0 0-.16.227c-.275.642-.409 1.398-.409 2.311 0 3.896 3.171 7.065 7.07 7.065 3.898 0 7.07-3.168 7.07-7.065 0-.8-.195-1.578-.385-2.232a.694.694 0 0 0-.193-.313c.01-.004.02-.012.03-.016.018-.007.034-.019.051-.027a1.91 1.91 0 0 0 .564-.393c.367-.369.552-.798.552-1.279 0-.551-.176-.977-.526-1.268a1.278 1.278 0 0 0-.378-.338 6.835 6.835 0 0 0-3.529-5.558.681.681 0 0 0-.677.012.682.682 0 0 0-.335.587v4.552L32.191.857a.683.683 0 0 0-.55-.67c-.898-.179-2.393-.179-3.282 0a.683.683 0 0 0-.55.67v5.526l-.05-4.552a.685.685 0 0 0-1.01-.6C24.626 2.39 23.264 4.51 23.12 6.836a2.14 2.14 0 0 0-.342.278c-.312.31-.471.742-.471 1.283 0 .397.13.791.385 1.176a.693.693 0 0 0 .186.188zM30 18.355a5.706 5.706 0 0 1-5.702-5.698c0-.525.051-.972.156-1.358H35.51c.109.437.196.905.196 1.358A5.707 5.707 0 0 1 30 18.355zM23.745 8.082c.095-.095.191-.145.353-.224a.687.687 0 0 0 .38-.613c0-1.58.712-3.072 1.915-4.112v3.934c0 .378.305.684.683.684h1.417a.683.683 0 0 0 .684-.684V1.431a5.788 5.788 0 0 1 1.648.001v5.635c0 .378.306.684.684.684h1.421a.683.683 0 0 0 .683-.684v-3.92a5.495 5.495 0 0 1 1.822 4.098c0 .297.19.558.472.65.097.031.15.054.152.04a.7.7 0 0 0 .217.234c.013.008.048.032.048.228 0 .077-.012.17-.157.318-.136.137-.244.153-.314.153H24.065a.434.434 0 0 1-.11-.047l-.02-.008a2.664 2.664 0 0 1-.167-.104.66.66 0 0 1-.092-.312c0-.182.036-.282.07-.315z"/><path fill-rule="nonzero" d="M59.92 37.638l-1.418-4.522-.004-.01c-1.603-4.885-4.546-11.381-11.557-11.381-2.564 0-4.909.989-6.779 2.862a.683.683 0 0 0-.096.844c1.23 1.97 2.305 4.4 3.033 6.854l1.596 4.975c.195.58.15 1.187-.122 1.665a.685.685 0 0 0 .594 1.021h12.595c.745 0 1.547-.411 1.954-1 .29-.424.358-.902.203-1.308zm-2.16.941H46.128a3.52 3.52 0 0 0-.134-1.744l-1.59-4.952c-.699-2.362-1.716-4.718-2.888-6.696 1.539-1.373 3.405-2.095 5.426-2.095 1.165 0 2.242.207 3.24.63.148.062.29.139.434.21.1.05.202.092.299.147 2.633 1.457 4.676 4.554 6.283 9.448l1.432 4.562c-.003.132-.429.49-.868.49zm-42.541-1.325l1.594-4.96c.875-2.619 1.956-4.99 3.123-6.862a.684.684 0 0 0-.11-.858c-2.021-1.917-4.264-2.849-6.855-2.849-5.248 0-9.108 3.832-11.472 11.392L.092 37.604c-.17.46-.1.948.197 1.376.402.578 1.186.967 1.95.967h12.596a.682.682 0 0 0 .594-1.022c-.181-.318-.448-.956-.21-1.671zm-1.299-.426a3.255 3.255 0 0 0-.08 1.751H2.239c-.354 0-.698-.192-.828-.379l-.026-.153 1.418-4.522c2.195-7.02 5.521-10.433 10.168-10.433 2.052 0 3.86.69 5.508 2.106-1.12 1.889-2.116 4.127-2.964 6.66l-.002.009-1.593 4.961z"/></g></symbol><symbol viewBox="0 0 29.731 29.731" id="phone-call" xmlns="http://www.w3.org/2000/svg"><path d="M23.895 29.731c-1.237 0-2.731-.31-4.374-.93-3.602-1.358-7.521-4.042-11.035-7.556C4.971 17.73 2.287 13.81.928 10.208-.307 6.933-.31 4.245.921 3.015c.177-.177.357-.367.543-.563C2.587 1.271 3.856-.058 5.538.002 6.697.05 7.82.77 8.97 2.201c3.398 4.226 1.866 5.732.093 7.478l-.313.31c-.29.29-.838 1.633 4.26 6.731 1.664 1.664 3.083 2.882 4.217 3.619.714.464 1.991 1.166 2.515.642l.315-.318c1.744-1.769 3.25-3.296 7.473.099 1.431 1.15 2.15 2.272 2.198 3.433.069 1.681-1.27 2.953-2.452 4.075-.195.186-.385.366-.562.542-.611.612-1.588.919-2.819.919zM5.418 1C4.223 1 3.144 2.136 2.189 3.141c-.192.202-.378.398-.561.581-.917.916-.824 3.323.236 6.134 1.31 3.472 3.913 7.266 7.33 10.683 3.416 3.415 7.208 6.018 10.681 7.327 2.811 1.062 5.218 1.152 6.133.237.183-.183.379-.369.581-.56 1.027-.976 2.192-2.082 2.141-3.309-.035-.843-.649-1.75-1.825-2.695-3.519-2.83-4.503-1.831-6.135-.176l-.32.323c-.78.781-2.047.608-3.767-.51-1.193-.776-2.667-2.038-4.379-3.751-4.231-4.23-5.584-6.819-4.26-8.146l.319-.315c1.659-1.632 2.66-2.617-.171-6.138-.947-1.175-1.853-1.789-2.696-1.825L5.418 1z"/></symbol><symbol viewBox="0 0 61 61" id="ruble" xmlns="http://www.w3.org/2000/svg"><title>noun_1105180_cc</title><g transform="translate(1 1)" fill-rule="evenodd"><rect width="58.961" height="58.706" rx="29.353"/><path d="M24.443 14a.739.739 0 0 0-.737.735v13.942h-2.948a.738.738 0 0 0-.656.36.731.731 0 0 0 0 .747c.137.23.388.368.656.36h2.948v5.872h-2.948a.738.738 0 0 0-.656.36.731.731 0 0 0 0 .747c.137.23.388.368.656.36h2.948v6.604a.733.733 0 0 0 .367.64.74.74 0 0 0 .74 0 .733.733 0 0 0 .367-.64v-6.604h6.634a.731.731 0 1 0 .656-1.107.738.738 0 0 0-.656-.36H25.18v-5.871h6.634s1.996 0 4.014-.996c2.019-1.004 4.093-3.162 4.093-7.078 0-3.914-2.074-6.071-4.093-7.075C33.81 13.989 31.814 14 31.814 14h-7.37zm.737 1.467h6.634s1.688 0 3.355.84c1.667.83 3.278 2.341 3.278 5.764 0 3.425-1.611 4.937-3.278 5.766a8.533 8.533 0 0 1-3.355.84H25.18v-13.21z" fill-rule="nonzero"/><path d="M9.5 8.5l40.75 40.75"/></g></symbol><symbol viewBox="0 0 26 25" id="vk" xmlns="http://www.w3.org/2000/svg"><title>VK</title><g transform="translate(1 1)" fill-rule="evenodd"><ellipse cx="12" cy="11.574" rx="12" ry="11.574"/><path d="M18.045 8.915c-.178-.128-.816-.128-1.448-.128-.645.012-1.29.012-1.441.07-.138.052-.447.785-.849 1.537-.46.85-1.02 1.673-1.375 1.66-.467 0-.355-1.396-.322-2.431.006-.676-.106-.895-.205-.952-.243-.168-.914-.328-.914-.328s-2.014-.148-2.297.7c.388.052 1.046-.064.79 2.566-.02.13-.31 1.21-1.244-.25-.237-.367-1.132-2.56-1.448-2.572-1.033-.02-2.06-.065-2.414.128-.336.193.447 1.698 1.77 3.717 1.072 1.66 2.21 2.946 4.185 3.267.375.039 1.336.077 1.645-.064.204-.097-.053-1.524.651-1.666.31-.058 1.513 1.492 1.967 1.666.277.11.883.154 1.501.128.671-.019 1.434.065 1.507-.385.165-.984-2.033-2.27-2.093-2.875-.052-.437.803-1.241 1.238-1.858.539-.747 1.131-1.647.796-1.93"/></g></symbol></svg>